<svg width="21" height="20" viewBox="0 0 21 20" fill="none" xmlns="http://www.w3.org/2000/svg">
<rect x="0.5" width="20" height="20" rx="10" fill="#D9D9D9"/>
<rect x="0.5" width="20" height="20" rx="10" fill="#D9D9D9"/>
<rect x="0.5" width="20" height="20" rx="10" fill="#D9D9D9"/>
<path d="M11.5391 9.22266H7.98438V10.5117H10.1133C10.0352 11.0586 9.46875 12.1328 7.98438 12.1328C6.71484 12.1328 5.66016 11.0781 5.66016 9.75C5.66016 8.44141 6.71484 7.38672 7.98438 7.38672C8.72656 7.38672 9.21484 7.69922 9.48828 7.97266L10.5039 6.99609C9.83984 6.37109 9 6 7.98438 6C5.91406 6 4.23438 7.67969 4.23438 9.75C4.23438 11.8398 5.91406 13.5 7.98438 13.5C10.1523 13.5 11.5977 11.9961 11.5977 9.84766C11.5977 9.59375 11.5586 9.41797 11.5391 9.22266ZM15.1523 9.33984V8.26562H14.0586V9.33984H12.9648V10.4336H14.0586V11.5273H15.1523V10.4336H16.2461V9.33984H15.1523Z" fill="white"/>
</svg>
