<svg width="20" height="20" viewBox="0 0 20 20" fill="none" xmlns="http://www.w3.org/2000/svg">
<rect width="20" height="20" rx="10" fill="#969696"/>
<rect width="20" height="20" rx="10" fill="#969696"/>
<rect width="20" height="20" rx="10" fill="#969696"/>
<path d="M11.0391 9.22266H7.48438V10.5117H9.61328C9.53516 11.0586 8.96875 12.1328 7.48438 12.1328C6.21484 12.1328 5.16016 11.0781 5.16016 9.75C5.16016 8.44141 6.21484 7.38672 7.48438 7.38672C8.22656 7.38672 8.71484 7.69922 8.98828 7.97266L10.0039 6.99609C9.33984 6.37109 8.5 6 7.48438 6C5.41406 6 3.73438 7.67969 3.73438 9.75C3.73438 11.8398 5.41406 13.5 7.48438 13.5C9.65234 13.5 11.0977 11.9961 11.0977 9.84766C11.0977 9.59375 11.0586 9.41797 11.0391 9.22266ZM14.6523 9.33984V8.26562H13.5586V9.33984H12.4648V10.4336H13.5586V11.5273H14.6523V10.4336H15.7461V9.33984H14.6523Z" fill="white"/>
</svg>
