<svg width="30" height="30" viewBox="0 0 30 30" fill="none" xmlns="http://www.w3.org/2000/svg">
<rect width="30" height="30" rx="15" fill="#676767"/>
<path d="M19.875 9.4375H10.0996C9.66797 9.4375 9.3125 9.81836 9.3125 10.2754V20C9.3125 20.457 9.66797 20.8125 10.0996 20.8125H19.875C20.3066 20.8125 20.6875 20.457 20.6875 20V10.2754C20.6875 9.81836 20.3066 9.4375 19.875 9.4375ZM12.7402 19.1875H11.0645V13.7793H12.7402V19.1875ZM11.9023 13.0176C11.3438 13.0176 10.9121 12.5859 10.9121 12.0527C10.9121 11.5195 11.3438 11.0625 11.9023 11.0625C12.4355 11.0625 12.8672 11.5195 12.8672 12.0527C12.8672 12.5859 12.4355 13.0176 11.9023 13.0176ZM19.0625 19.1875H17.3613V16.5469C17.3613 15.9375 17.3613 15.125 16.498 15.125C15.6094 15.125 15.4824 15.8105 15.4824 16.5215V19.1875H13.8066V13.7793H15.4062V14.5156H15.4316C15.6602 14.084 16.2188 13.627 17.0312 13.627C18.7324 13.627 19.0625 14.7695 19.0625 16.2168V19.1875Z" fill="black"/>
</svg>
