<svg width="30" height="30" viewBox="0 0 30 30" fill="none" xmlns="http://www.w3.org/2000/svg">
<rect width="30" height="30" rx="15" fill="white"/>
<path d="M15 13.7793C13.9336 13.7793 13.2988 14.9219 13.8066 15.8105C14.3398 16.7246 15.6348 16.7246 16.168 15.8105C16.2695 15.6074 16.3457 15.3789 16.3457 15.125C16.3457 14.3887 15.7363 13.7793 15 13.7793ZM18.1484 12.7383C18.0215 12.3828 17.7422 12.1035 17.3867 11.9766C16.8535 11.748 15.584 11.7988 15 11.7988C14.3906 11.7988 13.1211 11.748 12.5879 11.9766C12.2324 12.1035 11.9531 12.3828 11.8262 12.7383C11.623 13.2715 11.6484 14.541 11.6484 15.125C11.6484 15.7344 11.623 17.0039 11.8262 17.5371C11.9531 17.8926 12.2324 18.1719 12.5879 18.2988C13.1211 18.5273 14.3906 18.4766 15 18.4766C15.584 18.4766 16.8535 18.5273 17.3867 18.2988C17.7422 18.1719 18.0215 17.8926 18.1484 17.5371C18.377 17.0039 18.3262 15.7344 18.3262 15.125C18.3262 14.541 18.377 13.2715 18.1484 12.7383ZM15 17.207C13.375 17.207 12.3848 15.4805 13.1719 14.084C13.9844 12.7129 15.9902 12.7129 16.8027 14.084C16.9805 14.4141 17.082 14.7695 17.082 15.125C17.082 16.293 16.1426 17.2324 15 17.207ZM17.1582 13.4492C16.7773 13.4492 16.5488 13.043 16.7266 12.7129C16.9297 12.4082 17.3867 12.4082 17.5645 12.7129C17.6152 12.7891 17.6406 12.8906 17.6406 12.9668C17.6406 13.2461 17.4121 13.4492 17.1582 13.4492ZM19.4688 9.4375H10.5312C9.8457 9.4375 9.3125 9.99609 9.3125 10.6562V19.5938C9.3125 20.2793 9.8457 20.8125 10.5312 20.8125H19.4688C20.1289 20.8125 20.6875 20.2793 20.6875 19.5938V10.6562C20.6875 9.99609 20.1289 9.4375 19.4688 9.4375ZM19.0117 16.8008C18.9863 17.4609 18.834 18.0449 18.377 18.502C17.8945 18.9844 17.3105 19.1367 16.6758 19.1621C15.9902 19.2129 13.9844 19.2129 13.3242 19.1621C12.6641 19.1367 12.0801 18.9844 11.623 18.502C11.1406 18.0449 10.9883 17.4609 10.9629 16.8008C10.9121 16.1406 10.9121 14.1348 10.9629 13.4492C10.9883 12.8145 11.1406 12.2305 11.623 11.748C12.0801 11.291 12.6641 11.1387 13.3242 11.1133C13.9844 11.0625 15.9902 11.0625 16.6758 11.1133C17.3105 11.1387 17.8945 11.291 18.377 11.7734C18.834 12.2305 18.9863 12.8145 19.0117 13.4746C19.0625 14.1348 19.0625 16.1406 19.0117 16.8008Z" fill="black"/>
</svg>
