<svg width="30" height="30" viewBox="0 0 30 30" fill="none" xmlns="http://www.w3.org/2000/svg">
<rect width="30" height="30" rx="15" fill="#676767"/>
<path d="M20.1543 12.4844C20.1543 12.6113 20.1543 12.7129 20.1543 12.8398C20.1543 16.3691 17.4883 20.4062 12.5879 20.4062C11.0645 20.4062 9.66797 19.9746 8.5 19.2129C8.70312 19.2383 8.90625 19.2637 9.13477 19.2637C10.3789 19.2637 11.5215 18.832 12.4355 18.1211C11.2676 18.0957 10.2773 17.334 9.94727 16.2676C10.125 16.293 10.2773 16.3184 10.4551 16.3184C10.6836 16.3184 10.9375 16.2676 11.1406 16.2168C9.92188 15.9629 9.00781 14.8965 9.00781 13.6016V13.5762C9.36328 13.7793 9.79492 13.8809 10.2266 13.9062C9.49023 13.4238 9.0332 12.6113 9.0332 11.6973C9.0332 11.1895 9.16016 10.7324 9.38867 10.3516C10.709 11.9512 12.6895 13.0176 14.8984 13.1445C14.8477 12.9414 14.8223 12.7383 14.8223 12.5352C14.8223 11.0625 16.0156 9.86914 17.4883 9.86914C18.25 9.86914 18.9355 10.1738 19.4434 10.707C20.0273 10.5801 20.6113 10.3516 21.1191 10.0469C20.916 10.6816 20.5098 11.1895 19.9512 11.5195C20.4844 11.4688 21.0176 11.3164 21.4746 11.1133C21.1191 11.6465 20.6621 12.1035 20.1543 12.4844Z" fill="black"/>
</svg>
