<svg width="20" height="20" viewBox="0 0 20 20" fill="none" xmlns="http://www.w3.org/2000/svg">
<rect width="20" height="20" rx="10" fill="#D9D9D9"/>
<rect width="20" height="20" rx="10" fill="#D9D9D9"/>
<rect width="20" height="20" rx="10" fill="#D9D9D9"/>
<path d="M13.9648 7.71875C14.3555 7.42578 14.707 7.07422 14.9805 6.66406C14.6289 6.82031 14.2188 6.9375 13.8086 6.97656C14.2383 6.72266 14.5508 6.33203 14.707 5.84375C14.3164 6.07812 13.8672 6.25391 13.418 6.35156C13.0273 5.94141 12.5 5.70703 11.9141 5.70703C10.7812 5.70703 9.86328 6.625 9.86328 7.75781C9.86328 7.91406 9.88281 8.07031 9.92188 8.22656C8.22266 8.12891 6.69922 7.30859 5.68359 6.07812C5.50781 6.37109 5.41016 6.72266 5.41016 7.11328C5.41016 7.81641 5.76172 8.44141 6.32812 8.8125C5.99609 8.79297 5.66406 8.71484 5.39062 8.55859V8.57812C5.39062 9.57422 6.09375 10.3945 7.03125 10.5898C6.875 10.6289 6.67969 10.668 6.50391 10.668C6.36719 10.668 6.25 10.6484 6.11328 10.6289C6.36719 11.4492 7.12891 12.0352 8.02734 12.0547C7.32422 12.6016 6.44531 12.9336 5.48828 12.9336C5.3125 12.9336 5.15625 12.9141 5 12.8945C5.89844 13.4805 6.97266 13.8125 8.14453 13.8125C11.9141 13.8125 13.9648 10.707 13.9648 7.99219C13.9648 7.89453 13.9648 7.81641 13.9648 7.71875Z" fill="white"/>
</svg>
